<?xml version="1.0" encoding="utf-8"?>
<!-- Generator: Adobe Illustrator 21.0.0, SVG Export Plug-In . SVG Version: 6.00 Build 0)  -->
<svg version="1.1" id="Layer_1" xmlns="http://www.w3.org/2000/svg" xmlns:xlink="http://www.w3.org/1999/xlink" x="0px" y="0px"
	 viewBox="0 0 1136.2 800" style="enable-background:new 0 0 1136.2 800;" xml:space="preserve">
<style type="text/css">
	.st0{fill:#1A1A1A;}
</style>
<g>
	<polygon class="st0" points="-110.1,63.6 -110.1,-63.6 0,-127.2 110.1,-63.6 110.1,63.6 0,127.2 	"/>
	<path d="M0-126.6l109.6,63.3V63.3L0,126.6l-109.6-63.3V-63.3L0-126.6 M0-127.7l-110.6,63.9V63.9L0,127.7l110.6-63.9V-63.9L0-127.7
		L0-127.7z"/>
</g>
<g>
	<polygon class="st0" points="117.1,63.6 117.1,-63.6 227.2,-127.2 337.4,-63.6 337.4,63.6 227.2,127.2 	"/>
	<path d="M227.2-126.6l109.6,63.3V63.3l-109.6,63.3L117.6,63.3V-63.3L227.2-126.6 M227.2-127.7L116.6-63.9V63.9l110.6,63.9
		l110.6-63.9V-63.9L227.2-127.7L227.2-127.7z"/>
</g>
<g>
	<polygon class="st0" points="344.4,63.6 344.4,-63.6 454.5,-127.2 564.6,-63.6 564.6,63.6 454.5,127.2 	"/>
	<path d="M454.5-126.6l109.6,63.3V63.3l-109.6,63.3L344.9,63.3V-63.3L454.5-126.6 M454.5-127.7L343.9-63.9V63.9l110.6,63.9
		l110.6-63.9V-63.9L454.5-127.7L454.5-127.7z"/>
</g>
<g>
	<polygon class="st0" points="571.6,63.6 571.6,-63.6 681.7,-127.2 791.8,-63.6 791.8,63.6 681.7,127.2 	"/>
	<path d="M681.7-126.6l109.6,63.3V63.3l-109.6,63.3L572.1,63.3V-63.3L681.7-126.6 M681.7-127.7L571.1-63.9V63.9l110.6,63.9
		l110.6-63.9V-63.9L681.7-127.7L681.7-127.7z"/>
</g>
<g>
	<polygon class="st0" points="798.8,63.6 798.8,-63.6 908.9,-127.2 1019.1,-63.6 1019.1,63.6 908.9,127.2 	"/>
	<path d="M908.9-126.6l109.6,63.3V63.3l-109.6,63.3L799.3,63.3V-63.3L908.9-126.6 M908.9-127.7L798.3-63.9V63.9l110.6,63.9
		l110.6-63.9V-63.9L908.9-127.7L908.9-127.7z"/>
</g>
<g>
	<polygon class="st0" points="1026.1,63.6 1026.1,-63.6 1136.2,-127.2 1246.3,-63.6 1246.3,63.6 1136.2,127.2 	"/>
	<path d="M1136.2-126.6l109.6,63.3V63.3l-109.6,63.3l-109.6-63.3V-63.3L1136.2-126.6 M1136.2-127.7l-110.6,63.9V63.9l110.6,63.9
		l110.6-63.9V-63.9L1136.2-127.7L1136.2-127.7z"/>
</g>
<g>
	<polygon class="st0" points="-110.1,463.6 -110.1,336.4 0,272.8 110.1,336.4 110.1,463.6 0,527.2 	"/>
	<path d="M0,273.4l109.6,63.3v126.6L0,526.6l-109.6-63.3V336.7L0,273.4 M0,272.3l-110.6,63.9v127.7L0,527.7l110.6-63.9V336.1
		L0,272.3L0,272.3z"/>
</g>
<g>
	<polygon class="st0" points="117.1,463.6 117.1,336.4 227.2,272.8 337.4,336.4 337.4,463.6 227.2,527.2 	"/>
	<path d="M227.2,273.4l109.6,63.3v126.6l-109.6,63.3l-109.6-63.3V336.7L227.2,273.4 M227.2,272.3l-110.6,63.9v127.7l110.6,63.9
		l110.6-63.9V336.1L227.2,272.3L227.2,272.3z"/>
</g>
<g>
	<polygon class="st0" points="344.4,463.6 344.4,336.4 454.5,272.8 564.6,336.4 564.6,463.6 454.5,527.2 	"/>
	<path d="M454.5,273.4l109.6,63.3v126.6l-109.6,63.3l-109.6-63.3V336.7L454.5,273.4 M454.5,272.3l-110.6,63.9v127.7l110.6,63.9
		l110.6-63.9V336.1L454.5,272.3L454.5,272.3z"/>
</g>
<g>
	<polygon class="st0" points="571.6,463.6 571.6,336.4 681.7,272.8 791.8,336.4 791.8,463.6 681.7,527.2 	"/>
	<path d="M681.7,273.4l109.6,63.3v126.6l-109.6,63.3l-109.6-63.3V336.7L681.7,273.4 M681.7,272.3l-110.6,63.9v127.7l110.6,63.9
		l110.6-63.9V336.1L681.7,272.3L681.7,272.3z"/>
</g>
<g>
	<polygon class="st0" points="798.8,463.6 798.8,336.4 908.9,272.8 1019.1,336.4 1019.1,463.6 908.9,527.2 	"/>
	<path d="M908.9,273.4l109.6,63.3v126.6l-109.6,63.3l-109.6-63.3V336.7L908.9,273.4 M908.9,272.3l-110.6,63.9v127.7l110.6,63.9
		l110.6-63.9V336.1L908.9,272.3L908.9,272.3z"/>
</g>
<g>
	<polygon class="st0" points="1026.1,463.6 1026.1,336.4 1136.2,272.8 1246.3,336.4 1246.3,463.6 1136.2,527.2 	"/>
	<path d="M1136.2,273.4l109.6,63.3v126.6l-109.6,63.3l-109.6-63.3V336.7L1136.2,273.4 M1136.2,272.3l-110.6,63.9v127.7l110.6,63.9
		l110.6-63.9V336.1L1136.2,272.3L1136.2,272.3z"/>
</g>
<g>
	<polygon class="st0" points="-110.1,863.6 -110.1,736.4 0,672.8 110.1,736.4 110.1,863.6 0,927.2 	"/>
	<path d="M0,673.4l109.6,63.3v126.6L0,926.6l-109.6-63.3V736.7L0,673.4 M0,672.3l-110.6,63.9v127.7L0,927.7l110.6-63.9V736.1
		L0,672.3L0,672.3z"/>
</g>
<g>
	<polygon class="st0" points="117.1,863.6 117.1,736.4 227.2,672.8 337.4,736.4 337.4,863.6 227.2,927.2 	"/>
	<path d="M227.2,673.4l109.6,63.3v126.6l-109.6,63.3l-109.6-63.3V736.7L227.2,673.4 M227.2,672.3l-110.6,63.9v127.7l110.6,63.9
		l110.6-63.9V736.1L227.2,672.3L227.2,672.3z"/>
</g>
<g>
	<polygon class="st0" points="344.4,863.6 344.4,736.4 454.5,672.8 564.6,736.4 564.6,863.6 454.5,927.2 	"/>
	<path d="M454.5,673.4l109.6,63.3v126.6l-109.6,63.3l-109.6-63.3V736.7L454.5,673.4 M454.5,672.3l-110.6,63.9v127.7l110.6,63.9
		l110.6-63.9V736.1L454.5,672.3L454.5,672.3z"/>
</g>
<g>
	<polygon class="st0" points="571.6,863.6 571.6,736.4 681.7,672.8 791.8,736.4 791.8,863.6 681.7,927.2 	"/>
	<path d="M681.7,673.4l109.6,63.3v126.6l-109.6,63.3l-109.6-63.3V736.7L681.7,673.4 M681.7,672.3l-110.6,63.9v127.7l110.6,63.9
		l110.6-63.9V736.1L681.7,672.3L681.7,672.3z"/>
</g>
<g>
	<polygon class="st0" points="798.8,863.6 798.8,736.4 908.9,672.8 1019.1,736.4 1019.1,863.6 908.9,927.2 	"/>
	<path d="M908.9,673.4l109.6,63.3v126.6l-109.6,63.3l-109.6-63.3V736.7L908.9,673.4 M908.9,672.3l-110.6,63.9v127.7l110.6,63.9
		l110.6-63.9V736.1L908.9,672.3L908.9,672.3z"/>
</g>
<g>
	<polygon class="st0" points="1026.1,863.6 1026.1,736.4 1136.2,672.8 1246.3,736.4 1246.3,863.6 1136.2,927.2 	"/>
	<path d="M1136.2,673.4l109.6,63.3v126.6l-109.6,63.3l-109.6-63.3V736.7L1136.2,673.4 M1136.2,672.3l-110.6,63.9v127.7l110.6,63.9
		l110.6-63.9V736.1L1136.2,672.3L1136.2,672.3z"/>
</g>
<g>
	<polygon class="st0" points="3.5,664.6 3.5,537.4 113.6,473.8 223.7,537.4 223.7,664.6 113.6,728.1 	"/>
	<path d="M113.6,474.4l109.6,63.3v126.6l-109.6,63.3L4,664.3V537.7L113.6,474.4 M113.6,473.3L3,537.1v127.7l110.6,63.9l110.6-63.9
		V537.1L113.6,473.3L113.6,473.3z"/>
</g>
<g>
	<polygon class="st0" points="230.7,664.6 230.7,537.4 340.9,473.8 451,537.4 451,664.6 340.9,728.1 	"/>
	<path d="M340.9,474.4l109.6,63.3v126.6l-109.6,63.3l-109.6-63.3V537.7L340.9,474.4 M340.9,473.3l-110.6,63.9v127.7l110.6,63.9
		l110.6-63.9V537.1L340.9,473.3L340.9,473.3z"/>
</g>
<g>
	<polygon class="st0" points="458,664.6 458,537.4 568.1,473.8 678.2,537.4 678.2,664.6 568.1,728.1 	"/>
	<path d="M568.1,474.4l109.6,63.3v126.6l-109.6,63.3l-109.6-63.3V537.7L568.1,474.4 M568.1,473.3l-110.6,63.9v127.7l110.6,63.9
		l110.6-63.9V537.1L568.1,473.3L568.1,473.3z"/>
</g>
<g>
	<polygon class="st0" points="685.2,664.6 685.2,537.4 795.3,473.8 905.4,537.4 905.4,664.6 795.3,728.1 	"/>
	<path d="M795.3,474.4l109.6,63.3v126.6l-109.6,63.3l-109.6-63.3V537.7L795.3,474.4 M795.3,473.3l-110.6,63.9v127.7l110.6,63.9
		l110.6-63.9V537.1L795.3,473.3L795.3,473.3z"/>
</g>
<g>
	<polygon class="st0" points="912.4,664.6 912.4,537.4 1022.6,473.8 1132.7,537.4 1132.7,664.6 1022.6,728.1 	"/>
	<path d="M1022.6,474.4l109.6,63.3v126.6l-109.6,63.3l-109.6-63.3V537.7L1022.6,474.4 M1022.6,473.3l-110.6,63.9v127.7l110.6,63.9
		l110.6-63.9V537.1L1022.6,473.3L1022.6,473.3z"/>
</g>
<g>
	<polygon class="st0" points="3.5,263.5 3.5,136.4 113.6,72.8 223.7,136.4 223.7,263.5 113.6,327.1 	"/>
	<path d="M113.6,73.4l109.6,63.3v126.6l-109.6,63.3L4,263.2V136.7L113.6,73.4 M113.6,72.2L3,136.1v127.7l110.6,63.9l110.6-63.9
		V136.1L113.6,72.2L113.6,72.2z"/>
</g>
<g>
	<polygon class="st0" points="230.7,263.5 230.7,136.4 340.9,72.8 451,136.4 451,263.5 340.9,327.1 	"/>
	<path d="M340.9,73.4l109.6,63.3v126.6l-109.6,63.3l-109.6-63.3V136.7L340.9,73.4 M340.9,72.2l-110.6,63.9v127.7l110.6,63.9
		l110.6-63.9V136.1L340.9,72.2L340.9,72.2z"/>
</g>
<g>
	<polygon class="st0" points="458,263.5 458,136.4 568.1,72.8 678.2,136.4 678.2,263.5 568.1,327.1 	"/>
	<path d="M568.1,73.4l109.6,63.3v126.6l-109.6,63.3l-109.6-63.3V136.7L568.1,73.4 M568.1,72.2l-110.6,63.9v127.7l110.6,63.9
		l110.6-63.9V136.1L568.1,72.2L568.1,72.2z"/>
</g>
<g>
	<polygon class="st0" points="685.2,263.5 685.2,136.4 795.3,72.8 905.4,136.4 905.4,263.5 795.3,327.1 	"/>
	<path d="M795.3,73.4l109.6,63.3v126.6l-109.6,63.3l-109.6-63.3V136.7L795.3,73.4 M795.3,72.2l-110.6,63.9v127.7l110.6,63.9
		l110.6-63.9V136.1L795.3,72.2L795.3,72.2z"/>
</g>
<g>
	<polygon class="st0" points="912.4,263.5 912.4,136.4 1022.6,72.8 1132.7,136.4 1132.7,263.5 1022.6,327.1 	"/>
	<path d="M1022.6,73.4l109.6,63.3v126.6l-109.6,63.3l-109.6-63.3V136.7L1022.6,73.4 M1022.6,72.2l-110.6,63.9v127.7l110.6,63.9
		l110.6-63.9V136.1L1022.6,72.2L1022.6,72.2z"/>
</g>
</svg>
